<?xml version="1.0" encoding="UTF-8"?>
<svg width="462px" height="114px" viewBox="0 0 462 114" version="1.1" xmlns="http://www.w3.org/2000/svg" xmlns:xlink="http://www.w3.org/1999/xlink">
    <!-- Generator: Sketch 58 (84663) - https://sketch.com -->
    <title>Upinside</title>
    <desc>Created with Sketch.</desc>
    <g id="Page-1" stroke="none" stroke-width="1" fill="none" fill-rule="evenodd">
        <g id="Artboard-Copy-8" transform="translate(-54.000000, -292.000000)" fill-rule="nonzero">
            <g id="Upinside" transform="translate(54.766348, 292.707344)">
                <path d="M109.649531,25.0991016 C114.006233,25.0991016 118.102627,25.8798262 121.938838,27.4412988 C125.775048,29.0027715 129.129273,31.2100053 132.001611,34.0630664 C134.87395,36.9161275 137.139015,40.357099 138.796875,44.386084 C140.454735,48.415069 141.283652,52.8777294 141.283652,57.7741992 C141.283652,62.8634434 140.454735,67.4417668 138.796875,71.5093066 C137.139015,75.5768465 134.87395,79.0274565 132.001611,81.8612402 C129.129273,84.6950239 125.775048,86.8637034 121.938838,88.3673438 C118.102627,89.8709841 114.006233,90.622793 109.649531,90.622793 C108.261556,90.622793 106.883239,90.4685758 105.514541,90.1601367 C104.145843,89.8516977 102.796442,89.4372389 101.466299,88.916748 C100.136155,88.3962572 98.8253092,87.8083041 97.5337207,87.1528711 C96.2421322,86.4974381 94.998756,85.8227378 93.8035547,85.12875 L93.8035547,112.888125 L77.8997461,112.888125 L77.8997461,27.3545508 L81.7166602,27.3545508 L88.0203516,34.8148828 C89.4468821,33.465462 91.0083314,32.19317 92.7047461,30.9979688 C94.4011608,29.8027675 96.1650201,28.7714399 97.996377,27.9039551 C99.8277338,27.0364703 101.726533,26.3521314 103.692832,25.850918 C105.659131,25.3497045 107.644677,25.0991016 109.649531,25.0991016 Z M16.5399609,6.36152344 L16.5399609,56.1549023 C16.5399609,58.4296403 16.9736968,60.569404 17.8411816,62.5742578 C18.7086664,64.5791116 19.8942112,66.3333323 21.3978516,67.8369727 C22.9014919,69.340613 24.6653512,70.5261578 26.6894824,71.3936426 C28.7136136,72.2611274 30.863016,72.6948633 33.1377539,72.6948633 C35.4124918,72.6948633 37.5618942,72.2611274 39.5860254,71.3936426 C41.6101566,70.5261578 43.3740159,69.340613 44.8776562,67.8369727 C46.3812966,66.3333323 47.5668414,64.5791116 48.4343262,62.5742578 C49.301811,60.569404 49.7355469,58.4296403 49.7355469,56.1549023 L49.7355469,6.36152344 L66.3333398,6.36152344 L66.3333398,56.1549023 C66.3333398,60.7429331 65.465868,65.0513763 63.7308984,69.0803613 C61.9959288,73.1093463 59.6248393,76.6177878 56.6175586,79.605791 C53.6102779,82.5937942 50.0921979,84.9552452 46.0632129,86.6902148 C42.0342279,88.4251845 37.7257847,89.2926563 33.1377539,89.2926563 C28.5497232,89.2926563 24.2412799,88.4251845 20.2122949,86.6902148 C16.1833099,84.9552452 12.6748685,82.5937942 9.68686523,79.605791 C6.69886201,76.6177878 4.33741102,73.1093463 2.60244141,69.0803613 C0.867471794,65.0513763 -4.8316906e-13,60.7429331 -4.8316906e-13,56.1549023 L-4.8316906e-13,6.36152344 L16.5399609,6.36152344 Z M109.649531,40.9450781 C107.490458,40.9450781 105.456719,41.3306211 103.548252,42.1017188 C101.639785,42.8728164 99.9723118,43.9812525 98.5457812,45.4270605 C97.1192507,46.8728686 95.9915373,48.6367279 95.1626074,50.7186914 C94.3336775,52.8006549 93.9192187,55.1524674 93.9192187,57.7741992 C93.9192187,60.2802664 94.3336775,62.5742474 95.1626074,64.6562109 C95.9915373,66.7381745 97.1192507,68.5116724 98.5457812,69.9767578 C99.9723118,71.4418433 101.639785,72.5791952 103.548252,73.3888477 C105.456719,74.1985001 107.490458,74.6033203 109.649531,74.6033203 C111.808605,74.6033203 113.851983,74.1985001 115.779727,73.3888477 C117.707471,72.5791952 119.384583,71.4418433 120.811113,69.9767578 C122.237644,68.5116724 123.365357,66.7381745 124.194287,64.6562109 C125.023217,62.5742474 125.437676,60.2802664 125.437676,57.7741992 C125.437676,55.1524674 125.023217,52.8006549 124.194287,50.7186914 C123.365357,48.6367279 122.237644,46.8728686 120.811113,45.4270605 C119.384583,43.9812525 117.707471,42.8728164 115.779727,42.1017188 C113.851983,41.3306211 111.808605,40.9450781 109.649531,40.9450781 Z" id="Up" fill="#1D8CF8"></path>
                <path d="M168.638203,10.5254297 C168.638203,11.9905151 168.358684,13.3591929 167.799639,14.6315039 C167.240593,15.903815 166.479145,17.0122511 165.515273,17.9568457 C164.551401,18.9014403 163.423688,19.6532492 162.1321,20.2122949 C160.840511,20.7713407 159.462195,21.0508594 157.997109,21.0508594 C156.532024,21.0508594 155.153708,20.7713407 153.862119,20.2122949 C152.570531,19.6532492 151.452456,18.9014403 150.507861,17.9568457 C149.563267,17.0122511 148.811458,15.903815 148.252412,14.6315039 C147.693366,13.3591929 147.413848,11.9905151 147.413848,10.5254297 C147.413848,9.09889912 147.693366,7.73985997 148.252412,6.44827148 C148.811458,5.156683 149.563267,4.03860824 150.507861,3.09401367 C151.452456,2.14941911 152.570531,1.39761022 153.862119,0.838564453 C155.153708,0.279518689 156.532024,-1.98951966e-13 157.997109,-1.98951966e-13 C159.462195,-1.98951966e-13 160.840511,0.279518689 162.1321,0.838564453 C163.423688,1.39761022 164.551401,2.14941911 165.515273,3.09401367 C166.479145,4.03860824 167.240593,5.156683 167.799639,6.44827148 C168.358684,7.73985997 168.638203,9.09889912 168.638203,10.5254297 Z M165.920098,89.2926562 L150.016289,89.2926562 L150.016289,27.3545508 L165.920098,27.3545508 L165.920098,89.2926562 Z M193.737305,89.2926562 L177.94916,89.2926562 L177.94916,27.3545508 L181.766074,27.3545508 L186.970957,33.369082 C189.515579,31.0557892 192.397513,29.2726527 195.616846,28.0196191 C198.836178,26.7665855 202.200041,26.1400781 205.708535,26.1400781 C209.486913,26.1400781 213.053186,26.8629713 216.407461,28.3087793 C219.761736,29.7545873 222.691862,31.7401339 225.19793,34.2654785 C227.703997,36.7908232 229.679905,39.7402273 231.125713,43.1137793 C232.571521,46.4873313 233.294414,50.08252 233.294414,53.8994531 L233.294414,89.2926562 L217.50627,89.2926562 L217.50627,53.8994531 C217.50627,52.2801482 217.197835,50.7476147 216.580957,49.3018066 C215.964079,47.8559986 215.115884,46.5933452 214.036348,45.5138086 C212.956811,44.4342719 211.703796,43.5860773 210.277266,42.9691992 C208.850735,42.3523211 207.32784,42.0438867 205.708535,42.0438867 C204.050675,42.0438867 202.489226,42.3523211 201.024141,42.9691992 C199.559055,43.5860773 198.286763,44.4342719 197.207227,45.5138086 C196.12769,46.5933452 195.279495,47.8559986 194.662617,49.3018066 C194.045739,50.7476147 193.737305,52.2801482 193.737305,53.8994531 L193.737305,89.2926562 Z M278.519063,89.2926562 L242.431875,89.2926562 L242.431875,73.5623437 L278.519063,73.5623437 C279.598599,73.5623437 280.523902,73.1768007 281.295,72.4057031 C282.066098,71.6346055 282.451641,70.7093023 282.451641,69.6297656 C282.451641,68.5116741 282.066098,67.7791424 281.295,67.4321484 C280.523902,67.0851545 279.598599,66.9116602 278.519063,66.9116602 L262.094766,66.9116602 C259.357369,66.9116602 256.793508,66.3911771 254.403105,65.3501953 C252.012703,64.3092135 249.930771,62.8923429 248.157246,61.099541 C246.383722,59.3067391 244.986128,57.2151682 243.964424,54.8247656 C242.94272,52.434363 242.431875,49.870502 242.431875,47.1331055 C242.431875,44.395709 242.94272,41.8318479 243.964424,39.4414453 C244.986128,37.0510427 246.383722,34.9691104 248.157246,33.1955859 C249.930771,31.4220614 252.012703,30.024468 254.403105,29.0027637 C256.793508,27.9810593 259.357369,27.4702148 262.094766,27.4702148 L294.075879,27.4702148 L294.075879,43.2005273 L262.094766,43.2005273 C261.015229,43.2005273 260.089926,43.5860704 259.318828,44.357168 C258.547731,45.1282656 258.162188,46.0535688 258.162188,47.1331055 C258.162188,48.251197 258.547731,49.205416 259.318828,49.995791 C260.089926,50.7861661 261.015229,51.1813477 262.094766,51.1813477 L278.519063,51.1813477 C281.217904,51.1813477 283.762488,51.6343607 286.152891,52.5404004 C288.543293,53.4464401 290.625226,54.7090935 292.39875,56.3283984 C294.172274,57.9477034 295.579507,59.8946957 296.620488,62.1694336 C297.66147,64.4441715 298.181953,66.930924 298.181953,69.6297656 C298.181953,72.3671621 297.66147,74.9213846 296.620488,77.2925098 C295.579507,79.6636349 294.172274,81.7455672 292.39875,83.5383691 C290.625226,85.3311711 288.543293,86.7384031 286.152891,87.7601074 C283.762488,88.7818117 281.217904,89.2926562 278.519063,89.2926562 Z M325.189512,10.5254297 C325.189512,11.9905151 324.909993,13.3591929 324.350947,14.6315039 C323.791902,15.903815 323.030454,17.0122511 322.066582,17.9568457 C321.10271,18.9014403 319.974997,19.6532492 318.683408,20.2122949 C317.39182,20.7713407 316.013503,21.0508594 314.548418,21.0508594 C313.083333,21.0508594 311.705016,20.7713407 310.413428,20.2122949 C309.121839,19.6532492 308.003764,18.9014403 307.05917,17.9568457 C306.114575,17.0122511 305.362766,15.903815 304.803721,14.6315039 C304.244675,13.3591929 303.965156,11.9905151 303.965156,10.5254297 C303.965156,9.09889912 304.244675,7.73985997 304.803721,6.44827148 C305.362766,5.156683 306.114575,4.03860824 307.05917,3.09401367 C308.003764,2.14941911 309.121839,1.39761022 310.413428,0.838564453 C311.705016,0.279518689 313.083333,-1.98951966e-13 314.548418,-1.98951966e-13 C316.013503,-1.98951966e-13 317.39182,0.279518689 318.683408,0.838564453 C319.974997,1.39761022 321.10271,2.14941911 322.066582,3.09401367 C323.030454,4.03860824 323.791902,5.156683 324.350947,6.44827148 C324.909993,7.73985997 325.189512,9.09889912 325.189512,10.5254297 Z M394.356621,2.71810547 L394.356621,89.2926562 L390.539707,89.2926562 L384.409512,80.7913477 C382.905871,82.1407685 381.315506,83.4034219 379.638369,84.5793457 C377.961232,85.7552696 376.197373,86.7769586 374.346738,87.6444434 C372.496104,88.5119282 370.597305,89.196267 368.650283,89.6974805 C366.703262,90.1986939 364.727354,90.4492969 362.7225,90.4492969 C358.365799,90.4492969 354.269404,89.630018 350.433193,87.9914355 C346.596983,86.3528531 343.242759,84.0781493 340.37042,81.1672559 C337.498081,78.2563624 335.233016,74.8057524 333.575156,70.8153223 C331.917296,66.8248922 331.088379,62.4778946 331.088379,57.7741992 C331.088379,53.1090587 331.917296,48.7716997 333.575156,44.7619922 C335.233016,40.7522846 337.498081,37.2823975 340.37042,34.3522266 C343.242759,31.4220557 346.596983,29.1280747 350.433193,27.4702148 C354.269404,25.812355 358.365799,24.9834375 362.7225,24.9834375 C364.110476,24.9834375 365.546623,25.0991004 367.030986,25.3304297 C368.515349,25.561759 369.961136,25.9376634 371.368389,26.4581543 C372.775642,26.9786452 374.096127,27.662984 375.329883,28.5111914 C376.563639,29.3593988 377.604605,30.4003649 378.452813,31.6341211 L378.452813,2.71810547 L394.356621,2.71810547 Z M434.723379,24.9834375 C437.306556,24.9834375 439.831863,25.2918719 442.299375,25.90875 C444.766887,26.5256281 447.109061,27.412377 449.325967,28.5690234 C451.542872,29.7256698 453.615166,31.1425404 455.54291,32.8196777 C457.470654,34.496815 459.167043,36.3763372 460.632129,38.4583008 L431.022129,74.1406641 C431.639007,74.3334385 432.255876,74.4587399 432.872754,74.5165723 C433.489632,74.5744046 434.106501,74.6033203 434.723379,74.6033203 C436.265574,74.6033203 437.749915,74.3912717 439.176445,73.967168 C440.602976,73.5430643 441.942738,72.935834 443.195771,72.145459 C444.448805,71.3550839 445.56688,70.3912264 446.550029,69.2538574 C447.533179,68.1164885 448.333181,66.8538351 448.950059,65.4658594 L460.516465,77.0900977 C459.051379,79.1720612 457.364629,81.0419448 455.456162,82.6998047 C453.547696,84.3576645 451.48504,85.7648966 449.268135,86.921543 C447.051229,88.0781894 444.718694,88.9552997 442.270459,89.5529004 C439.822224,90.150501 437.306556,90.4492969 434.723379,90.4492969 C430.366677,90.4492969 426.270283,89.6396565 422.434072,88.0203516 C418.597862,86.4010466 415.243637,84.1456199 412.371299,81.2540039 C409.49896,78.3623879 407.233895,74.9214164 405.576035,70.9309863 C403.918175,66.9405562 403.089258,62.5550044 403.089258,57.7741992 C403.089258,52.8777294 403.918175,48.4054304 405.576035,44.357168 C407.233895,40.3089055 409.49896,36.8582955 412.371299,34.0052344 C415.243637,31.1521732 418.597862,28.9353009 422.434072,27.3545508 C426.270283,25.7738007 430.366677,24.9834375 434.723379,24.9834375 Z M322.471406,27.3545508 L322.471406,89.2926562 L306.567598,89.2926562 L306.567598,27.3545508 L322.471406,27.3545508 Z M362.7225,40.9450781 C360.563427,40.9450781 358.529687,41.3306211 356.621221,42.1017187 C354.712754,42.8728164 353.054919,43.9812525 351.647666,45.4270605 C350.240413,46.8728686 349.131977,48.6367279 348.322324,50.7186914 C347.512672,52.8006549 347.107852,55.1524674 347.107852,57.7741992 C347.107852,60.0489372 347.512672,62.2079781 348.322324,64.2513867 C349.131977,66.2947954 350.240413,68.0875704 351.647666,69.6297656 C353.054919,71.1719608 354.712754,72.3864213 356.621221,73.2731836 C358.529687,74.1599458 360.563427,74.6033203 362.7225,74.6033203 C364.881573,74.6033203 366.915313,74.1310301 368.823779,73.1864355 C370.732246,72.241841 372.399719,70.9888262 373.82625,69.4273535 C375.252781,67.8658809 376.380494,66.0731058 377.209424,64.0489746 C378.038354,62.0248434 378.452813,59.9332725 378.452813,57.7741992 C378.452813,55.6151259 378.038354,53.523555 377.209424,51.4994238 C376.380494,49.4752926 375.252781,47.6825176 373.82625,46.1210449 C372.399719,44.5595723 370.732246,43.3065575 368.823779,42.3619629 C366.915313,41.4173683 364.881573,40.9450781 362.7225,40.9450781 Z M434.723379,40.9450781 C432.564306,40.9450781 430.530566,41.3402597 428.6221,42.1306348 C426.713633,42.9210098 425.055798,44.0487231 423.648545,45.5138086 C422.241292,46.978894 421.132856,48.7427534 420.323203,50.8054395 C419.513551,52.8681255 419.10873,55.1910222 419.10873,57.7741992 C419.10873,58.3525224 419.137646,59.0079456 419.195479,59.7404883 C419.253311,60.473031 419.349697,61.2152013 419.484639,61.9670215 C419.619581,62.7188416 419.783437,63.4417348 419.976211,64.1357227 C420.168985,64.8297105 420.419588,65.4465793 420.728027,65.9863477 L420.728027,65.9863477 L439.118613,41.5812305 C438.386071,41.3113463 437.663177,41.1378519 436.949912,41.0607422 C436.236647,40.9836324 435.494477,40.9450781 434.723379,40.9450781 Z" id="inside" fill="#E9ECEF"></path>
            </g>
        </g>
    </g>
</svg>